<?xml version="1.0" encoding="UTF-8" standalone="no"?>
<!DOCTYPE svg PUBLIC "-//W3C//DTD SVG 1.1//EN"
 "http://www.w3.org/Graphics/SVG/1.1/DTD/svg11.dtd">
<!-- Generated by graphviz version 2.40.1 (20161225.0304)
 -->
<!-- Title: dependencies Pages: 1 -->
<svg width="2011pt" height="284pt"
 viewBox="0.00 0.00 2011.00 284.00" xmlns="http://www.w3.org/2000/svg" xmlns:xlink="http://www.w3.org/1999/xlink">
<g id="graph0" class="graph" transform="scale(1 1) rotate(0) translate(4 280)">
<title>dependencies</title>
<polygon fill="#ffffff" stroke="transparent" points="-4,4 -4,-280 2007,-280 2007,4 -4,4"/>
<text text-anchor="start" x="980.5091" y="-42.4" font-family="sans-serif" font-weight="bold" font-size="14.00" fill="#000000">Legend</text>
<polygon fill="#ffffb3" stroke="transparent" points="767.5,-10 767.5,-30 787.5,-30 787.5,-10 767.5,-10"/>
<text text-anchor="start" x="791.129" y="-15.4" font-family="sans-serif" font-size="14.00" fill="#000000"> &#160;Declarations</text>
<polygon fill="#8dd3c7" stroke="transparent" points="880.5,-10 880.5,-30 900.5,-30 900.5,-10 880.5,-10"/>
<text text-anchor="start" x="904.2251" y="-15.4" font-family="sans-serif" font-size="14.00" fill="#000000"> &#160;Module</text>
<polygon fill="#80b1d3" stroke="transparent" points="966.5,-10 966.5,-30 986.5,-30 986.5,-10 966.5,-10"/>
<text text-anchor="start" x="990.2812" y="-15.4" font-family="sans-serif" font-size="14.00" fill="#000000"> &#160;Bootstrap</text>
<polygon fill="#fdb462" stroke="transparent" points="1063.5,-10 1063.5,-30 1083.5,-30 1083.5,-10 1063.5,-10"/>
<text text-anchor="start" x="1087.1732" y="-15.4" font-family="sans-serif" font-size="14.00" fill="#000000"> &#160;Providers</text>
<polygon fill="#fb8072" stroke="transparent" points="1159.5,-10 1159.5,-30 1179.5,-30 1179.5,-10 1159.5,-10"/>
<text text-anchor="start" x="1183.2258" y="-15.4" font-family="sans-serif" font-size="14.00" fill="#000000"> &#160;Exports</text>
<g id="clust1" class="cluster">
<title>cluster_NgxTreeModule</title>
<polygon fill="none" stroke="#000000" stroke-dasharray="1,5" points="8,-70 8,-268 1995,-268 1995,-70 8,-70"/>
</g>
<g id="clust2" class="cluster">
<title>cluster_NgxTreeModule_declarations</title>
<polygon fill="none" stroke="#000000" points="36,-78 36,-130 1967,-130 1967,-78 36,-78"/>
</g>
<g id="clust15" class="cluster">
<title>cluster_NgxTreeModule_exports</title>
<polygon fill="none" stroke="#000000" points="16,-208 16,-260 1987,-260 1987,-208 16,-208"/>
</g>
<!-- TreeComponent -->
<g id="node1" class="node">
<title>TreeComponent</title>
<polygon fill="#ffffb3" stroke="#000000" points="1959.4748,-122 1852.5252,-122 1852.5252,-86 1959.4748,-86 1959.4748,-122"/>
<text text-anchor="middle" x="1906" y="-99.8" font-family="Times,serif" font-size="14.00" fill="#000000">TreeComponent</text>
</g>
<!-- NgxTreeModule -->
<g id="node12" class="node">
<title>NgxTreeModule</title>
<polygon fill="#8dd3c7" stroke="#000000" points="1164.7992,-187 1161.7992,-191 1140.7992,-191 1137.7992,-187 1055.2008,-187 1055.2008,-151 1164.7992,-151 1164.7992,-187"/>
<text text-anchor="middle" x="1110" y="-164.8" font-family="Times,serif" font-size="14.00" fill="#000000">NgxTreeModule</text>
</g>
<!-- TreeComponent&#45;&gt;NgxTreeModule -->
<g id="edge1" class="edge">
<title>TreeComponent&#45;&gt;NgxTreeModule</title>
<path fill="none" stroke="#000000" d="M1860.6376,-122.1686C1860.6376,-141.0898 1860.6376,-168 1860.6376,-168 1860.6376,-168 1174.8921,-168 1174.8921,-168"/>
<polygon fill="#000000" stroke="#000000" points="1174.8921,-164.5001 1164.8921,-168 1174.892,-171.5001 1174.8921,-164.5001"/>
</g>
<!-- TreeDragDirective -->
<g id="node2" class="node">
<title>TreeDragDirective</title>
<polygon fill="#ffffb3" stroke="#000000" points="1834.7074,-122 1713.2926,-122 1713.2926,-86 1834.7074,-86 1834.7074,-122"/>
<text text-anchor="middle" x="1774" y="-99.8" font-family="Times,serif" font-size="14.00" fill="#000000">TreeDragDirective</text>
</g>
<!-- TreeDragDirective&#45;&gt;NgxTreeModule -->
<g id="edge2" class="edge">
<title>TreeDragDirective&#45;&gt;NgxTreeModule</title>
<path fill="none" stroke="#000000" d="M1719.2715,-122.302C1719.2715,-140.2699 1719.2715,-165 1719.2715,-165 1719.2715,-165 1174.8739,-165 1174.8739,-165"/>
<polygon fill="#000000" stroke="#000000" points="1174.8739,-161.5001 1164.8739,-165 1174.8739,-168.5001 1174.8739,-161.5001"/>
</g>
<!-- TreeDropDirective -->
<g id="node3" class="node">
<title>TreeDropDirective</title>
<polygon fill="#ffffb3" stroke="#000000" points="1695.4934,-122 1572.5066,-122 1572.5066,-86 1695.4934,-86 1695.4934,-122"/>
<text text-anchor="middle" x="1634" y="-99.8" font-family="Times,serif" font-size="14.00" fill="#000000">TreeDropDirective</text>
</g>
<!-- TreeDropDirective&#45;&gt;NgxTreeModule -->
<g id="edge3" class="edge">
<title>TreeDropDirective&#45;&gt;NgxTreeModule</title>
<path fill="none" stroke="#000000" d="M1576.8788,-122.0352C1576.8788,-138.7344 1576.8788,-161 1576.8788,-161 1576.8788,-161 1174.9298,-161 1174.9298,-161"/>
<polygon fill="#000000" stroke="#000000" points="1174.9299,-157.5001 1164.9298,-161 1174.9298,-164.5001 1174.9299,-157.5001"/>
</g>
<!-- TreeLoadingComponent -->
<g id="node4" class="node">
<title>TreeLoadingComponent</title>
<polygon fill="#ffffb3" stroke="#000000" points="1554.633,-122 1401.367,-122 1401.367,-86 1554.633,-86 1554.633,-122"/>
<text text-anchor="middle" x="1478" y="-99.8" font-family="Times,serif" font-size="14.00" fill="#000000">TreeLoadingComponent</text>
</g>
<!-- TreeLoadingComponent&#45;&gt;NgxTreeModule -->
<g id="edge4" class="edge">
<title>TreeLoadingComponent&#45;&gt;NgxTreeModule</title>
<path fill="none" stroke="#000000" d="M1505.0221,-122.2819C1505.0221,-137.9478 1505.0221,-158 1505.0221,-158 1505.0221,-158 1174.9261,-158 1174.9261,-158"/>
<polygon fill="#000000" stroke="#000000" points="1174.9262,-154.5001 1164.9261,-158 1174.9261,-161.5001 1174.9262,-154.5001"/>
</g>
<!-- TreeNodeChildrenComponent -->
<g id="node5" class="node">
<title>TreeNodeChildrenComponent</title>
<polygon fill="#ffffb3" stroke="#000000" points="1383.2892,-122 1196.7108,-122 1196.7108,-86 1383.2892,-86 1383.2892,-122"/>
<text text-anchor="middle" x="1290" y="-99.8" font-family="Times,serif" font-size="14.00" fill="#000000">TreeNodeChildrenComponent</text>
</g>
<!-- TreeNodeChildrenComponent&#45;&gt;NgxTreeModule -->
<g id="edge5" class="edge">
<title>TreeNodeChildrenComponent&#45;&gt;NgxTreeModule</title>
<path fill="none" stroke="#000000" d="M1321.4648,-122.1243C1321.4648,-136.7832 1321.4648,-155 1321.4648,-155 1321.4648,-155 1174.7325,-155 1174.7325,-155"/>
<polygon fill="#000000" stroke="#000000" points="1174.7325,-151.5001 1164.7325,-155 1174.7324,-158.5001 1174.7325,-151.5001"/>
</g>
<!-- TreeNodeComponent -->
<g id="node6" class="node">
<title>TreeNodeComponent</title>
<polygon fill="#ffffb3" stroke="#000000" points="1178.7963,-122 1041.2037,-122 1041.2037,-86 1178.7963,-86 1178.7963,-122"/>
<text text-anchor="middle" x="1110" y="-99.8" font-family="Times,serif" font-size="14.00" fill="#000000">TreeNodeComponent</text>
</g>
<!-- TreeNodeComponent&#45;&gt;NgxTreeModule -->
<g id="edge6" class="edge">
<title>TreeNodeComponent&#45;&gt;NgxTreeModule</title>
<path fill="none" stroke="#000000" d="M1110,-122.1061C1110,-122.1061 1110,-140.991 1110,-140.991"/>
<polygon fill="#000000" stroke="#000000" points="1106.5001,-140.9909 1110,-150.991 1113.5001,-140.991 1106.5001,-140.9909"/>
</g>
<!-- TreeNodeContentComponent -->
<g id="node7" class="node">
<title>TreeNodeContentComponent</title>
<polygon fill="#ffffb3" stroke="#000000" points="1023.6288,-122 842.3712,-122 842.3712,-86 1023.6288,-86 1023.6288,-122"/>
<text text-anchor="middle" x="933" y="-99.8" font-family="Times,serif" font-size="14.00" fill="#000000">TreeNodeContentComponent</text>
</g>
<!-- TreeNodeContentComponent&#45;&gt;NgxTreeModule -->
<g id="edge7" class="edge">
<title>TreeNodeContentComponent&#45;&gt;NgxTreeModule</title>
<path fill="none" stroke="#000000" d="M961.7714,-122.1243C961.7714,-136.7832 961.7714,-155 961.7714,-155 961.7714,-155 1045.2263,-155 1045.2263,-155"/>
<polygon fill="#000000" stroke="#000000" points="1045.2263,-158.5001 1055.2263,-155 1045.2262,-151.5001 1045.2263,-158.5001"/>
</g>
<!-- TreeNodeDropSlotComponent -->
<g id="node8" class="node">
<title>TreeNodeDropSlotComponent</title>
<polygon fill="#ffffb3" stroke="#000000" points="824.1274,-122 635.8726,-122 635.8726,-86 824.1274,-86 824.1274,-122"/>
<text text-anchor="middle" x="730" y="-99.8" font-family="Times,serif" font-size="14.00" fill="#000000">TreeNodeDropSlotComponent</text>
</g>
<!-- TreeNodeDropSlotComponent&#45;&gt;NgxTreeModule -->
<g id="edge8" class="edge">
<title>TreeNodeDropSlotComponent&#45;&gt;NgxTreeModule</title>
<path fill="none" stroke="#000000" d="M757.2712,-122.2819C757.2712,-137.9478 757.2712,-158 757.2712,-158 757.2712,-158 1045.2731,-158 1045.2731,-158"/>
<polygon fill="#000000" stroke="#000000" points="1045.2732,-161.5001 1055.2731,-158 1045.2731,-154.5001 1045.2732,-161.5001"/>
</g>
<!-- TreeNodeExpanderComponent -->
<g id="node9" class="node">
<title>TreeNodeExpanderComponent</title>
<polygon fill="#ffffb3" stroke="#000000" points="617.4384,-122 426.5616,-122 426.5616,-86 617.4384,-86 617.4384,-122"/>
<text text-anchor="middle" x="522" y="-99.8" font-family="Times,serif" font-size="14.00" fill="#000000">TreeNodeExpanderComponent</text>
</g>
<!-- TreeNodeExpanderComponent&#45;&gt;NgxTreeModule -->
<g id="edge9" class="edge">
<title>TreeNodeExpanderComponent&#45;&gt;NgxTreeModule</title>
<path fill="none" stroke="#000000" d="M612.8442,-122.0352C612.8442,-138.7344 612.8442,-161 612.8442,-161 612.8442,-161 1044.8961,-161 1044.8961,-161"/>
<polygon fill="#000000" stroke="#000000" points="1044.8961,-164.5001 1054.8961,-161 1044.8961,-157.5001 1044.8961,-164.5001"/>
</g>
<!-- TreeNodeWrapperComponent -->
<g id="node10" class="node">
<title>TreeNodeWrapperComponent</title>
<polygon fill="#ffffb3" stroke="#000000" points="408.2612,-122 221.7388,-122 221.7388,-86 408.2612,-86 408.2612,-122"/>
<text text-anchor="middle" x="315" y="-99.8" font-family="Times,serif" font-size="14.00" fill="#000000">TreeNodeWrapperComponent</text>
</g>
<!-- TreeNodeWrapperComponent&#45;&gt;NgxTreeModule -->
<g id="edge10" class="edge">
<title>TreeNodeWrapperComponent&#45;&gt;NgxTreeModule</title>
<path fill="none" stroke="#000000" d="M402.0055,-122.302C402.0055,-140.2699 402.0055,-165 402.0055,-165 402.0055,-165 1045.3276,-165 1045.3276,-165"/>
<polygon fill="#000000" stroke="#000000" points="1045.3276,-168.5001 1055.3276,-165 1045.3275,-161.5001 1045.3276,-168.5001"/>
</g>
<!-- TreeViewportComponent -->
<g id="node11" class="node">
<title>TreeViewportComponent</title>
<polygon fill="#ffffb3" stroke="#000000" points="203.8445,-122 44.1555,-122 44.1555,-86 203.8445,-86 203.8445,-122"/>
<text text-anchor="middle" x="124" y="-99.8" font-family="Times,serif" font-size="14.00" fill="#000000">TreeViewportComponent</text>
</g>
<!-- TreeViewportComponent&#45;&gt;NgxTreeModule -->
<g id="edge11" class="edge">
<title>TreeViewportComponent&#45;&gt;NgxTreeModule</title>
<path fill="none" stroke="#000000" d="M195.7972,-122.1686C195.7972,-141.0898 195.7972,-168 195.7972,-168 195.7972,-168 1045.2112,-168 1045.2112,-168"/>
<polygon fill="#000000" stroke="#000000" points="1045.2113,-171.5001 1055.2112,-168 1045.2112,-164.5001 1045.2113,-171.5001"/>
</g>
<!-- TreeComponent  -->
<g id="node13" class="node">
<title>TreeComponent </title>
<polygon fill="#fb8072" stroke="#000000" points="1979.4758,-252 1868.5242,-252 1868.5242,-216 1979.4758,-216 1979.4758,-252"/>
<text text-anchor="middle" x="1924" y="-229.8" font-family="Times,serif" font-size="14.00" fill="#000000">TreeComponent </text>
</g>
<!-- NgxTreeModule&#45;&gt;TreeComponent  -->
<g id="edge12" class="edge">
<title>NgxTreeModule&#45;&gt;TreeComponent </title>
<path fill="none" stroke="#000000" stroke-dasharray="5,2" d="M1164.9543,-171C1346.2858,-171 1914.125,-171 1914.125,-171 1914.125,-171 1914.125,-205.7778 1914.125,-205.7778"/>
<polygon fill="#000000" stroke="#000000" points="1910.6251,-205.7778 1914.125,-215.7778 1917.6251,-205.7778 1910.6251,-205.7778"/>
</g>
<!-- TreeDragDirective  -->
<g id="node14" class="node">
<title>TreeDragDirective </title>
<polygon fill="#fb8072" stroke="#000000" points="1850.7072,-252 1725.2928,-252 1725.2928,-216 1850.7072,-216 1850.7072,-252"/>
<text text-anchor="middle" x="1788" y="-229.8" font-family="Times,serif" font-size="14.00" fill="#000000">TreeDragDirective </text>
</g>
<!-- NgxTreeModule&#45;&gt;TreeDragDirective  -->
<g id="edge13" class="edge">
<title>NgxTreeModule&#45;&gt;TreeDragDirective </title>
<path fill="none" stroke="#000000" stroke-dasharray="5,2" d="M1164.8391,-174C1324.8846,-174 1780.125,-174 1780.125,-174 1780.125,-174 1780.125,-205.998 1780.125,-205.998"/>
<polygon fill="#000000" stroke="#000000" points="1776.6251,-205.998 1780.125,-215.998 1783.6251,-205.9981 1776.6251,-205.998"/>
</g>
<!-- TreeDropDirective  -->
<g id="node15" class="node">
<title>TreeDropDirective </title>
<polygon fill="#fb8072" stroke="#000000" points="1706.9924,-252 1581.0076,-252 1581.0076,-216 1706.9924,-216 1706.9924,-252"/>
<text text-anchor="middle" x="1644" y="-229.8" font-family="Times,serif" font-size="14.00" fill="#000000">TreeDropDirective </text>
</g>
<!-- NgxTreeModule&#45;&gt;TreeDropDirective  -->
<g id="edge14" class="edge">
<title>NgxTreeModule&#45;&gt;TreeDropDirective </title>
<path fill="none" stroke="#000000" stroke-dasharray="5,2" d="M1165.0241,-178C1300.29,-178 1638.125,-178 1638.125,-178 1638.125,-178 1638.125,-205.973 1638.125,-205.973"/>
<polygon fill="#000000" stroke="#000000" points="1634.6251,-205.973 1638.125,-215.973 1641.6251,-205.973 1634.6251,-205.973"/>
</g>
<!-- TreeLoadingComponent  -->
<g id="node16" class="node">
<title>TreeLoadingComponent </title>
<polygon fill="#fb8072" stroke="#000000" points="1562.6327,-252 1405.3673,-252 1405.3673,-216 1562.6327,-216 1562.6327,-252"/>
<text text-anchor="middle" x="1484" y="-229.8" font-family="Times,serif" font-size="14.00" fill="#000000">TreeLoadingComponent </text>
</g>
<!-- NgxTreeModule&#45;&gt;TreeLoadingComponent  -->
<g id="edge15" class="edge">
<title>NgxTreeModule&#45;&gt;TreeLoadingComponent </title>
<path fill="none" stroke="#000000" stroke-dasharray="5,2" d="M1164.7024,-181C1262.0473,-181 1455.2279,-181 1455.2279,-181 1455.2279,-181 1455.2279,-205.7604 1455.2279,-205.7604"/>
<polygon fill="#000000" stroke="#000000" points="1451.728,-205.7604 1455.2279,-215.7604 1458.728,-205.7604 1451.728,-205.7604"/>
</g>
<!-- TreeNodeChildrenComponent  -->
<g id="node17" class="node">
<title>TreeNodeChildrenComponent </title>
<polygon fill="#fb8072" stroke="#000000" points="1387.7891,-252 1198.2109,-252 1198.2109,-216 1387.7891,-216 1387.7891,-252"/>
<text text-anchor="middle" x="1293" y="-229.8" font-family="Times,serif" font-size="14.00" fill="#000000">TreeNodeChildrenComponent </text>
</g>
<!-- NgxTreeModule&#45;&gt;TreeNodeChildrenComponent  -->
<g id="edge16" class="edge">
<title>NgxTreeModule&#45;&gt;TreeNodeChildrenComponent </title>
<path fill="none" stroke="#000000" stroke-dasharray="5,2" d="M1164.9239,-184C1207.6726,-184 1259.7852,-184 1259.7852,-184 1259.7852,-184 1259.7852,-205.9489 1259.7852,-205.9489"/>
<polygon fill="#000000" stroke="#000000" points="1256.2853,-205.9488 1259.7852,-215.9489 1263.2853,-205.9489 1256.2853,-205.9488"/>
</g>
<!-- TreeNodeComponent  -->
<g id="node18" class="node">
<title>TreeNodeComponent </title>
<polygon fill="#fb8072" stroke="#000000" points="1180.2961,-252 1039.7039,-252 1039.7039,-216 1180.2961,-216 1180.2961,-252"/>
<text text-anchor="middle" x="1110" y="-229.8" font-family="Times,serif" font-size="14.00" fill="#000000">TreeNodeComponent </text>
</g>
<!-- NgxTreeModule&#45;&gt;TreeNodeComponent  -->
<g id="edge17" class="edge">
<title>NgxTreeModule&#45;&gt;TreeNodeComponent </title>
<path fill="none" stroke="#000000" stroke-dasharray="5,2" d="M1110,-187.1061C1110,-187.1061 1110,-205.991 1110,-205.991"/>
<polygon fill="#000000" stroke="#000000" points="1106.5001,-205.9909 1110,-215.991 1113.5001,-205.991 1106.5001,-205.9909"/>
</g>
<!-- TreeNodeContentComponent  -->
<g id="node19" class="node">
<title>TreeNodeContentComponent </title>
<polygon fill="#fb8072" stroke="#000000" points="1021.6284,-252 836.3716,-252 836.3716,-216 1021.6284,-216 1021.6284,-252"/>
<text text-anchor="middle" x="929" y="-229.8" font-family="Times,serif" font-size="14.00" fill="#000000">TreeNodeContentComponent </text>
</g>
<!-- NgxTreeModule&#45;&gt;TreeNodeContentComponent  -->
<g id="edge18" class="edge">
<title>NgxTreeModule&#45;&gt;TreeNodeContentComponent </title>
<path fill="none" stroke="#000000" stroke-dasharray="5,2" d="M1055.3448,-184C993.7117,-184 901.9786,-184 901.9786,-184 901.9786,-184 901.9786,-205.9489 901.9786,-205.9489"/>
<polygon fill="#000000" stroke="#000000" points="898.4787,-205.9488 901.9786,-215.9489 905.4787,-205.9489 898.4787,-205.9488"/>
</g>
<!-- TreeNodeDropSlotComponent  -->
<g id="node20" class="node">
<title>TreeNodeDropSlotComponent </title>
<polygon fill="#fb8072" stroke="#000000" points="818.127,-252 625.873,-252 625.873,-216 818.127,-216 818.127,-252"/>
<text text-anchor="middle" x="722" y="-229.8" font-family="Times,serif" font-size="14.00" fill="#000000">TreeNodeDropSlotComponent </text>
</g>
<!-- NgxTreeModule&#45;&gt;TreeNodeDropSlotComponent  -->
<g id="edge19" class="edge">
<title>NgxTreeModule&#45;&gt;TreeNodeDropSlotComponent </title>
<path fill="none" stroke="#000000" stroke-dasharray="5,2" d="M1055.0876,-181C942.6017,-181 696.4788,-181 696.4788,-181 696.4788,-181 696.4788,-205.7604 696.4788,-205.7604"/>
<polygon fill="#000000" stroke="#000000" points="692.9789,-205.7604 696.4788,-215.7604 699.9789,-205.7604 692.9789,-205.7604"/>
</g>
<!-- TreeNodeExpanderComponent  -->
<g id="node21" class="node">
<title>TreeNodeExpanderComponent </title>
<polygon fill="#fb8072" stroke="#000000" points="608.4389,-252 413.5611,-252 413.5611,-216 608.4389,-216 608.4389,-252"/>
<text text-anchor="middle" x="511" y="-229.8" font-family="Times,serif" font-size="14.00" fill="#000000">TreeNodeExpanderComponent </text>
</g>
<!-- NgxTreeModule&#45;&gt;TreeNodeExpanderComponent  -->
<g id="edge20" class="edge">
<title>NgxTreeModule&#45;&gt;TreeNodeExpanderComponent </title>
<path fill="none" stroke="#000000" stroke-dasharray="5,2" d="M1055.3095,-178C908.6001,-178 517.375,-178 517.375,-178 517.375,-178 517.375,-205.973 517.375,-205.973"/>
<polygon fill="#000000" stroke="#000000" points="513.8751,-205.973 517.375,-215.973 520.8751,-205.973 513.8751,-205.973"/>
</g>
<!-- TreeNodeWrapperComponent  -->
<g id="node22" class="node">
<title>TreeNodeWrapperComponent </title>
<polygon fill="#fb8072" stroke="#000000" points="395.7612,-252 206.2388,-252 206.2388,-216 395.7612,-216 395.7612,-252"/>
<text text-anchor="middle" x="301" y="-229.8" font-family="Times,serif" font-size="14.00" fill="#000000">TreeNodeWrapperComponent </text>
</g>
<!-- NgxTreeModule&#45;&gt;TreeNodeWrapperComponent  -->
<g id="edge21" class="edge">
<title>NgxTreeModule&#45;&gt;TreeNodeWrapperComponent </title>
<path fill="none" stroke="#000000" stroke-dasharray="5,2" d="M1055.2507,-174C874.5958,-174 308.875,-174 308.875,-174 308.875,-174 308.875,-205.998 308.875,-205.998"/>
<polygon fill="#000000" stroke="#000000" points="305.3751,-205.998 308.875,-215.998 312.3751,-205.9981 305.3751,-205.998"/>
</g>
<!-- TreeViewportComponent  -->
<g id="node23" class="node">
<title>TreeViewportComponent </title>
<polygon fill="#fb8072" stroke="#000000" points="187.8448,-252 24.1552,-252 24.1552,-216 187.8448,-216 187.8448,-252"/>
<text text-anchor="middle" x="106" y="-229.8" font-family="Times,serif" font-size="14.00" fill="#000000">TreeViewportComponent </text>
</g>
<!-- NgxTreeModule&#45;&gt;TreeViewportComponent  -->
<g id="edge22" class="edge">
<title>NgxTreeModule&#45;&gt;TreeViewportComponent </title>
<path fill="none" stroke="#000000" stroke-dasharray="5,2" d="M1055.1355,-171C846.7281,-171 115.875,-171 115.875,-171 115.875,-171 115.875,-205.7778 115.875,-205.7778"/>
<polygon fill="#000000" stroke="#000000" points="112.3751,-205.7778 115.875,-215.7778 119.3751,-205.7778 112.3751,-205.7778"/>
</g>
</g>
</svg>
