<?xml version="1.0" encoding="UTF-8" standalone="no"?>
<!DOCTYPE svg PUBLIC "-//W3C//DTD SVG 1.1//EN"
 "http://www.w3.org/Graphics/SVG/1.1/DTD/svg11.dtd">
<!-- Generated by graphviz version 2.40.1 (20161225.0304)
 -->
<!-- Title: dependencies Pages: 1 -->
<svg width="2011pt" height="284pt"
 viewBox="0.00 0.00 2011.00 284.00" xmlns="http://www.w3.org/2000/svg" xmlns:xlink="http://www.w3.org/1999/xlink">
<g id="graph0" class="graph" transform="scale(1 1) rotate(0) translate(4 280)">
<title>dependencies</title>
<polygon fill="#ffffff" stroke="transparent" points="-4,4 -4,-280 2007,-280 2007,4 -4,4"/>
<text text-anchor="start" x="980.5091" y="-42.4" font-family="sans-serif" font-weight="bold" font-size="14.00" fill="#000000">Legend</text>
<polygon fill="#ffffb3" stroke="transparent" points="767.5,-10 767.5,-30 787.5,-30 787.5,-10 767.5,-10"/>
<text text-anchor="start" x="791.129" y="-15.4" font-family="sans-serif" font-size="14.00" fill="#000000"> &#160;Declarations</text>
<polygon fill="#8dd3c7" stroke="transparent" points="880.5,-10 880.5,-30 900.5,-30 900.5,-10 880.5,-10"/>
<text text-anchor="start" x="904.2251" y="-15.4" font-family="sans-serif" font-size="14.00" fill="#000000"> &#160;Module</text>
<polygon fill="#80b1d3" stroke="transparent" points="966.5,-10 966.5,-30 986.5,-30 986.5,-10 966.5,-10"/>
<text text-anchor="start" x="990.2812" y="-15.4" font-family="sans-serif" font-size="14.00" fill="#000000"> &#160;Bootstrap</text>
<polygon fill="#fdb462" stroke="transparent" points="1063.5,-10 1063.5,-30 1083.5,-30 1083.5,-10 1063.5,-10"/>
<text text-anchor="start" x="1087.1732" y="-15.4" font-family="sans-serif" font-size="14.00" fill="#000000"> &#160;Providers</text>
<polygon fill="#fb8072" stroke="transparent" points="1159.5,-10 1159.5,-30 1179.5,-30 1179.5,-10 1159.5,-10"/>
<text text-anchor="start" x="1183.2258" y="-15.4" font-family="sans-serif" font-size="14.00" fill="#000000"> &#160;Exports</text>
<g id="clust1" class="cluster">
<title>cluster_NgxTreeModule</title>
<polygon fill="none" stroke="#000000" stroke-dasharray="1,5" points="8,-70 8,-268 1995,-268 1995,-70 8,-70"/>
</g>
<g id="clust2" class="cluster">
<title>cluster_NgxTreeModule_declarations</title>
<polygon fill="none" stroke="#000000" points="36,-78 36,-130 1967,-130 1967,-78 36,-78"/>
</g>
<g id="clust15" class="cluster">
<title>cluster_NgxTreeModule_exports</title>
<polygon fill="none" stroke="#000000" points="16,-208 16,-260 1987,-260 1987,-208 16,-208"/>
</g>
<!-- TreeLoadingComponent -->
<g id="node1" class="node">
<title>TreeLoadingComponent</title>
<polygon fill="#ffffb3" stroke="#000000" points="1958.633,-122 1805.367,-122 1805.367,-86 1958.633,-86 1958.633,-122"/>
<text text-anchor="middle" x="1882" y="-99.8" font-family="Times,serif" font-size="14.00" fill="#000000">TreeLoadingComponent</text>
</g>
<!-- NgxTreeModule -->
<g id="node12" class="node">
<title>NgxTreeModule</title>
<polygon fill="#8dd3c7" stroke="#000000" points="1055.7992,-187 1052.7992,-191 1031.7992,-191 1028.7992,-187 946.2008,-187 946.2008,-151 1055.7992,-151 1055.7992,-187"/>
<text text-anchor="middle" x="1001" y="-164.8" font-family="Times,serif" font-size="14.00" fill="#000000">NgxTreeModule</text>
</g>
<!-- TreeLoadingComponent&#45;&gt;NgxTreeModule -->
<g id="edge1" class="edge">
<title>TreeLoadingComponent&#45;&gt;NgxTreeModule</title>
<path fill="none" stroke="#000000" d="M1813.3087,-122.1686C1813.3087,-141.0898 1813.3087,-168 1813.3087,-168 1813.3087,-168 1065.8765,-168 1065.8765,-168"/>
<polygon fill="#000000" stroke="#000000" points="1065.8766,-164.5001 1055.8765,-168 1065.8765,-171.5001 1065.8766,-164.5001"/>
</g>
<!-- TreeNodeComponent -->
<g id="node2" class="node">
<title>TreeNodeComponent</title>
<polygon fill="#ffffb3" stroke="#000000" points="1787.7963,-122 1650.2037,-122 1650.2037,-86 1787.7963,-86 1787.7963,-122"/>
<text text-anchor="middle" x="1719" y="-99.8" font-family="Times,serif" font-size="14.00" fill="#000000">TreeNodeComponent</text>
</g>
<!-- TreeNodeComponent&#45;&gt;NgxTreeModule -->
<g id="edge2" class="edge">
<title>TreeNodeComponent&#45;&gt;NgxTreeModule</title>
<path fill="none" stroke="#000000" d="M1656.477,-122.302C1656.477,-140.2699 1656.477,-165 1656.477,-165 1656.477,-165 1065.7582,-165 1065.7582,-165"/>
<polygon fill="#000000" stroke="#000000" points="1065.7582,-161.5001 1055.7582,-165 1065.7581,-168.5001 1065.7582,-161.5001"/>
</g>
<!-- TreeComponent -->
<g id="node3" class="node">
<title>TreeComponent</title>
<polygon fill="#ffffb3" stroke="#000000" points="1632.4748,-122 1525.5252,-122 1525.5252,-86 1632.4748,-86 1632.4748,-122"/>
<text text-anchor="middle" x="1579" y="-99.8" font-family="Times,serif" font-size="14.00" fill="#000000">TreeComponent</text>
</g>
<!-- TreeComponent&#45;&gt;NgxTreeModule -->
<g id="edge3" class="edge">
<title>TreeComponent&#45;&gt;NgxTreeModule</title>
<path fill="none" stroke="#000000" d="M1529.6376,-122.0352C1529.6376,-138.7344 1529.6376,-161 1529.6376,-161 1529.6376,-161 1066.0775,-161 1066.0775,-161"/>
<polygon fill="#000000" stroke="#000000" points="1066.0775,-157.5001 1056.0775,-161 1066.0774,-164.5001 1066.0775,-157.5001"/>
</g>
<!-- TreeNodeExpanderComponent -->
<g id="node4" class="node">
<title>TreeNodeExpanderComponent</title>
<polygon fill="#ffffb3" stroke="#000000" points="1507.4384,-122 1316.5616,-122 1316.5616,-86 1507.4384,-86 1507.4384,-122"/>
<text text-anchor="middle" x="1412" y="-99.8" font-family="Times,serif" font-size="14.00" fill="#000000">TreeNodeExpanderComponent</text>
</g>
<!-- TreeNodeExpanderComponent&#45;&gt;NgxTreeModule -->
<g id="edge4" class="edge">
<title>TreeNodeExpanderComponent&#45;&gt;NgxTreeModule</title>
<path fill="none" stroke="#000000" d="M1445.5731,-122.2819C1445.5731,-137.9478 1445.5731,-158 1445.5731,-158 1445.5731,-158 1065.9593,-158 1065.9593,-158"/>
<polygon fill="#000000" stroke="#000000" points="1065.9593,-154.5001 1055.9593,-158 1065.9592,-161.5001 1065.9593,-154.5001"/>
</g>
<!-- TreeNodeWrapperComponent -->
<g id="node5" class="node">
<title>TreeNodeWrapperComponent</title>
<polygon fill="#ffffb3" stroke="#000000" points="1298.2612,-122 1111.7388,-122 1111.7388,-86 1298.2612,-86 1298.2612,-122"/>
<text text-anchor="middle" x="1205" y="-99.8" font-family="Times,serif" font-size="14.00" fill="#000000">TreeNodeWrapperComponent</text>
</g>
<!-- TreeNodeWrapperComponent&#45;&gt;NgxTreeModule -->
<g id="edge5" class="edge">
<title>TreeNodeWrapperComponent&#45;&gt;NgxTreeModule</title>
<path fill="none" stroke="#000000" d="M1236.7935,-122.1243C1236.7935,-136.7832 1236.7935,-155 1236.7935,-155 1236.7935,-155 1065.6884,-155 1065.6884,-155"/>
<polygon fill="#000000" stroke="#000000" points="1065.6885,-151.5001 1055.6884,-155 1065.6884,-158.5001 1065.6885,-151.5001"/>
</g>
<!-- TreeNodeChildrenComponent -->
<g id="node6" class="node">
<title>TreeNodeChildrenComponent</title>
<polygon fill="#ffffb3" stroke="#000000" points="1094.2892,-122 907.7108,-122 907.7108,-86 1094.2892,-86 1094.2892,-122"/>
<text text-anchor="middle" x="1001" y="-99.8" font-family="Times,serif" font-size="14.00" fill="#000000">TreeNodeChildrenComponent</text>
</g>
<!-- TreeNodeChildrenComponent&#45;&gt;NgxTreeModule -->
<g id="edge6" class="edge">
<title>TreeNodeChildrenComponent&#45;&gt;NgxTreeModule</title>
<path fill="none" stroke="#000000" d="M1001,-122.1061C1001,-122.1061 1001,-140.991 1001,-140.991"/>
<polygon fill="#000000" stroke="#000000" points="997.5001,-140.9909 1001,-150.991 1004.5001,-140.991 997.5001,-140.9909"/>
</g>
<!-- TreeNodeContentComponent -->
<g id="node7" class="node">
<title>TreeNodeContentComponent</title>
<polygon fill="#ffffb3" stroke="#000000" points="889.6288,-122 708.3712,-122 708.3712,-86 889.6288,-86 889.6288,-122"/>
<text text-anchor="middle" x="799" y="-99.8" font-family="Times,serif" font-size="14.00" fill="#000000">TreeNodeContentComponent</text>
</g>
<!-- TreeNodeContentComponent&#45;&gt;NgxTreeModule -->
<g id="edge7" class="edge">
<title>TreeNodeContentComponent&#45;&gt;NgxTreeModule</title>
<path fill="none" stroke="#000000" d="M828.4381,-122.1243C828.4381,-136.7832 828.4381,-155 828.4381,-155 828.4381,-155 935.9259,-155 935.9259,-155"/>
<polygon fill="#000000" stroke="#000000" points="935.9259,-158.5001 945.9259,-155 935.9258,-151.5001 935.9259,-158.5001"/>
</g>
<!-- TreeViewportComponent -->
<g id="node8" class="node">
<title>TreeViewportComponent</title>
<polygon fill="#ffffb3" stroke="#000000" points="689.8445,-122 530.1555,-122 530.1555,-86 689.8445,-86 689.8445,-122"/>
<text text-anchor="middle" x="610" y="-99.8" font-family="Times,serif" font-size="14.00" fill="#000000">TreeViewportComponent</text>
</g>
<!-- TreeViewportComponent&#45;&gt;NgxTreeModule -->
<g id="edge8" class="edge">
<title>TreeViewportComponent&#45;&gt;NgxTreeModule</title>
<path fill="none" stroke="#000000" d="M633.8074,-122.2819C633.8074,-137.9478 633.8074,-158 633.8074,-158 633.8074,-158 936.0276,-158 936.0276,-158"/>
<polygon fill="#000000" stroke="#000000" points="936.0276,-161.5001 946.0276,-158 936.0275,-154.5001 936.0276,-161.5001"/>
</g>
<!-- TreeNodeDropSlotComponent -->
<g id="node9" class="node">
<title>TreeNodeDropSlotComponent</title>
<polygon fill="#ffffb3" stroke="#000000" points="512.1274,-122 323.8726,-122 323.8726,-86 512.1274,-86 512.1274,-122"/>
<text text-anchor="middle" x="418" y="-99.8" font-family="Times,serif" font-size="14.00" fill="#000000">TreeNodeDropSlotComponent</text>
</g>
<!-- TreeNodeDropSlotComponent&#45;&gt;NgxTreeModule -->
<g id="edge9" class="edge">
<title>TreeNodeDropSlotComponent&#45;&gt;NgxTreeModule</title>
<path fill="none" stroke="#000000" d="M508.1885,-122.0352C508.1885,-138.7344 508.1885,-161 508.1885,-161 508.1885,-161 935.9027,-161 935.9027,-161"/>
<polygon fill="#000000" stroke="#000000" points="935.9028,-164.5001 945.9027,-161 935.9027,-157.5001 935.9028,-164.5001"/>
</g>
<!-- TreeDragDirective -->
<g id="node10" class="node">
<title>TreeDragDirective</title>
<polygon fill="#ffffb3" stroke="#000000" points="305.7074,-122 184.2926,-122 184.2926,-86 305.7074,-86 305.7074,-122"/>
<text text-anchor="middle" x="245" y="-99.8" font-family="Times,serif" font-size="14.00" fill="#000000">TreeDragDirective</text>
</g>
<!-- TreeDragDirective&#45;&gt;NgxTreeModule -->
<g id="edge10" class="edge">
<title>TreeDragDirective&#45;&gt;NgxTreeModule</title>
<path fill="none" stroke="#000000" d="M299.7285,-122.302C299.7285,-140.2699 299.7285,-165 299.7285,-165 299.7285,-165 936.2645,-165 936.2645,-165"/>
<polygon fill="#000000" stroke="#000000" points="936.2645,-168.5001 946.2645,-165 936.2645,-161.5001 936.2645,-168.5001"/>
</g>
<!-- TreeDropDirective -->
<g id="node11" class="node">
<title>TreeDropDirective</title>
<polygon fill="#ffffb3" stroke="#000000" points="166.4934,-122 43.5066,-122 43.5066,-86 166.4934,-86 166.4934,-122"/>
<text text-anchor="middle" x="105" y="-99.8" font-family="Times,serif" font-size="14.00" fill="#000000">TreeDropDirective</text>
</g>
<!-- TreeDropDirective&#45;&gt;NgxTreeModule -->
<g id="edge11" class="edge">
<title>TreeDropDirective&#45;&gt;NgxTreeModule</title>
<path fill="none" stroke="#000000" d="M158.1212,-122.1686C158.1212,-141.0898 158.1212,-168 158.1212,-168 158.1212,-168 936.3458,-168 936.3458,-168"/>
<polygon fill="#000000" stroke="#000000" points="936.3458,-171.5001 946.3458,-168 936.3458,-164.5001 936.3458,-171.5001"/>
</g>
<!-- TreeLoadingComponent  -->
<g id="node13" class="node">
<title>TreeLoadingComponent </title>
<polygon fill="#fb8072" stroke="#000000" points="1978.6327,-252 1821.3673,-252 1821.3673,-216 1978.6327,-216 1978.6327,-252"/>
<text text-anchor="middle" x="1900" y="-229.8" font-family="Times,serif" font-size="14.00" fill="#000000">TreeLoadingComponent </text>
</g>
<!-- NgxTreeModule&#45;&gt;TreeLoadingComponent  -->
<g id="edge12" class="edge">
<title>NgxTreeModule&#45;&gt;TreeLoadingComponent </title>
<path fill="none" stroke="#000000" stroke-dasharray="5,2" d="M1055.9478,-171C1249.797,-171 1890.125,-171 1890.125,-171 1890.125,-171 1890.125,-205.7778 1890.125,-205.7778"/>
<polygon fill="#000000" stroke="#000000" points="1886.6251,-205.7778 1890.125,-215.7778 1893.6251,-205.7778 1886.6251,-205.7778"/>
</g>
<!-- TreeNodeComponent  -->
<g id="node14" class="node">
<title>TreeNodeComponent </title>
<polygon fill="#fb8072" stroke="#000000" points="1803.2961,-252 1662.7039,-252 1662.7039,-216 1803.2961,-216 1803.2961,-252"/>
<text text-anchor="middle" x="1733" y="-229.8" font-family="Times,serif" font-size="14.00" fill="#000000">TreeNodeComponent </text>
</g>
<!-- NgxTreeModule&#45;&gt;TreeNodeComponent  -->
<g id="edge13" class="edge">
<title>NgxTreeModule&#45;&gt;TreeNodeComponent </title>
<path fill="none" stroke="#000000" stroke-dasharray="5,2" d="M1055.7239,-174C1224.4188,-174 1725.125,-174 1725.125,-174 1725.125,-174 1725.125,-205.998 1725.125,-205.998"/>
<polygon fill="#000000" stroke="#000000" points="1721.6251,-205.998 1725.125,-215.998 1728.6251,-205.9981 1721.6251,-205.998"/>
</g>
<!-- TreeComponent  -->
<g id="node15" class="node">
<title>TreeComponent </title>
<polygon fill="#fb8072" stroke="#000000" points="1644.4758,-252 1533.5242,-252 1533.5242,-216 1644.4758,-216 1644.4758,-252"/>
<text text-anchor="middle" x="1589" y="-229.8" font-family="Times,serif" font-size="14.00" fill="#000000">TreeComponent </text>
</g>
<!-- NgxTreeModule&#45;&gt;TreeComponent  -->
<g id="edge14" class="edge">
<title>NgxTreeModule&#45;&gt;TreeComponent </title>
<path fill="none" stroke="#000000" stroke-dasharray="5,2" d="M1055.7649,-178C1200.6769,-178 1583.125,-178 1583.125,-178 1583.125,-178 1583.125,-205.973 1583.125,-205.973"/>
<polygon fill="#000000" stroke="#000000" points="1579.6251,-205.973 1583.125,-215.973 1586.6251,-205.973 1579.6251,-205.973"/>
</g>
<!-- TreeNodeExpanderComponent  -->
<g id="node16" class="node">
<title>TreeNodeExpanderComponent </title>
<polygon fill="#fb8072" stroke="#000000" points="1516.4389,-252 1321.5611,-252 1321.5611,-216 1516.4389,-216 1516.4389,-252"/>
<text text-anchor="middle" x="1419" y="-229.8" font-family="Times,serif" font-size="14.00" fill="#000000">TreeNodeExpanderComponent </text>
</g>
<!-- NgxTreeModule&#45;&gt;TreeNodeExpanderComponent  -->
<g id="edge15" class="edge">
<title>NgxTreeModule&#45;&gt;TreeNodeExpanderComponent </title>
<path fill="none" stroke="#000000" stroke-dasharray="5,2" d="M1055.8283,-181C1161.6419,-181 1383.6769,-181 1383.6769,-181 1383.6769,-181 1383.6769,-205.7604 1383.6769,-205.7604"/>
<polygon fill="#000000" stroke="#000000" points="1380.177,-205.7604 1383.6769,-215.7604 1387.177,-205.7604 1380.177,-205.7604"/>
</g>
<!-- TreeNodeWrapperComponent  -->
<g id="node17" class="node">
<title>TreeNodeWrapperComponent </title>
<polygon fill="#fb8072" stroke="#000000" points="1303.7612,-252 1114.2388,-252 1114.2388,-216 1303.7612,-216 1303.7612,-252"/>
<text text-anchor="middle" x="1209" y="-229.8" font-family="Times,serif" font-size="14.00" fill="#000000">TreeNodeWrapperComponent </text>
</g>
<!-- NgxTreeModule&#45;&gt;TreeNodeWrapperComponent  -->
<g id="edge16" class="edge">
<title>NgxTreeModule&#45;&gt;TreeNodeWrapperComponent </title>
<path fill="none" stroke="#000000" stroke-dasharray="5,2" d="M1055.7205,-184C1106.8828,-184 1175.4565,-184 1175.4565,-184 1175.4565,-184 1175.4565,-205.9489 1175.4565,-205.9489"/>
<polygon fill="#000000" stroke="#000000" points="1171.9566,-205.9488 1175.4565,-215.9489 1178.9566,-205.9489 1171.9566,-205.9488"/>
</g>
<!-- TreeNodeChildrenComponent  -->
<g id="node18" class="node">
<title>TreeNodeChildrenComponent </title>
<polygon fill="#fb8072" stroke="#000000" points="1095.7891,-252 906.2109,-252 906.2109,-216 1095.7891,-216 1095.7891,-252"/>
<text text-anchor="middle" x="1001" y="-229.8" font-family="Times,serif" font-size="14.00" fill="#000000">TreeNodeChildrenComponent </text>
</g>
<!-- NgxTreeModule&#45;&gt;TreeNodeChildrenComponent  -->
<g id="edge17" class="edge">
<title>NgxTreeModule&#45;&gt;TreeNodeChildrenComponent </title>
<path fill="none" stroke="#000000" stroke-dasharray="5,2" d="M1001,-187.1061C1001,-187.1061 1001,-205.991 1001,-205.991"/>
<polygon fill="#000000" stroke="#000000" points="997.5001,-205.9909 1001,-215.991 1004.5001,-205.991 997.5001,-205.9909"/>
</g>
<!-- TreeNodeContentComponent  -->
<g id="node19" class="node">
<title>TreeNodeContentComponent </title>
<polygon fill="#fb8072" stroke="#000000" points="888.6284,-252 703.3716,-252 703.3716,-216 888.6284,-216 888.6284,-252"/>
<text text-anchor="middle" x="796" y="-229.8" font-family="Times,serif" font-size="14.00" fill="#000000">TreeNodeContentComponent </text>
</g>
<!-- NgxTreeModule&#45;&gt;TreeNodeContentComponent  -->
<g id="edge18" class="edge">
<title>NgxTreeModule&#45;&gt;TreeNodeContentComponent </title>
<path fill="none" stroke="#000000" stroke-dasharray="5,2" d="M946.1508,-184C877.3581,-184 768.3119,-184 768.3119,-184 768.3119,-184 768.3119,-205.9489 768.3119,-205.9489"/>
<polygon fill="#000000" stroke="#000000" points="764.812,-205.9488 768.3119,-215.9489 771.812,-205.9489 764.812,-205.9488"/>
</g>
<!-- TreeViewportComponent  -->
<g id="node20" class="node">
<title>TreeViewportComponent </title>
<polygon fill="#fb8072" stroke="#000000" points="685.8448,-252 522.1552,-252 522.1552,-216 685.8448,-216 685.8448,-252"/>
<text text-anchor="middle" x="604" y="-229.8" font-family="Times,serif" font-size="14.00" fill="#000000">TreeViewportComponent </text>
</g>
<!-- NgxTreeModule&#45;&gt;TreeViewportComponent  -->
<g id="edge19" class="edge">
<title>NgxTreeModule&#45;&gt;TreeViewportComponent </title>
<path fill="none" stroke="#000000" stroke-dasharray="5,2" d="M946.2156,-181C832.6251,-181 581.9426,-181 581.9426,-181 581.9426,-181 581.9426,-205.7604 581.9426,-205.7604"/>
<polygon fill="#000000" stroke="#000000" points="578.4427,-205.7604 581.9426,-215.7604 585.4427,-205.7604 578.4427,-205.7604"/>
</g>
<!-- TreeNodeDropSlotComponent  -->
<g id="node21" class="node">
<title>TreeNodeDropSlotComponent </title>
<polygon fill="#fb8072" stroke="#000000" points="504.127,-252 311.873,-252 311.873,-216 504.127,-216 504.127,-252"/>
<text text-anchor="middle" x="408" y="-229.8" font-family="Times,serif" font-size="14.00" fill="#000000">TreeNodeDropSlotComponent </text>
</g>
<!-- NgxTreeModule&#45;&gt;TreeNodeDropSlotComponent  -->
<g id="edge20" class="edge">
<title>NgxTreeModule&#45;&gt;TreeNodeDropSlotComponent </title>
<path fill="none" stroke="#000000" stroke-dasharray="5,2" d="M946.2919,-178C800.5381,-178 413.875,-178 413.875,-178 413.875,-178 413.875,-205.973 413.875,-205.973"/>
<polygon fill="#000000" stroke="#000000" points="410.3751,-205.973 413.875,-215.973 417.3751,-205.973 410.3751,-205.973"/>
</g>
<!-- TreeDragDirective  -->
<g id="node22" class="node">
<title>TreeDragDirective </title>
<polygon fill="#fb8072" stroke="#000000" points="293.7072,-252 168.2928,-252 168.2928,-216 293.7072,-216 293.7072,-252"/>
<text text-anchor="middle" x="231" y="-229.8" font-family="Times,serif" font-size="14.00" fill="#000000">TreeDragDirective </text>
</g>
<!-- NgxTreeModule&#45;&gt;TreeDragDirective  -->
<g id="edge21" class="edge">
<title>NgxTreeModule&#45;&gt;TreeDragDirective </title>
<path fill="none" stroke="#000000" stroke-dasharray="5,2" d="M946.1898,-174C771.4415,-174 238.875,-174 238.875,-174 238.875,-174 238.875,-205.998 238.875,-205.998"/>
<polygon fill="#000000" stroke="#000000" points="235.3751,-205.998 238.875,-215.998 242.3751,-205.9981 235.3751,-205.998"/>
</g>
<!-- TreeDropDirective  -->
<g id="node23" class="node">
<title>TreeDropDirective </title>
<polygon fill="#fb8072" stroke="#000000" points="149.9924,-252 24.0076,-252 24.0076,-216 149.9924,-216 149.9924,-252"/>
<text text-anchor="middle" x="87" y="-229.8" font-family="Times,serif" font-size="14.00" fill="#000000">TreeDropDirective </text>
</g>
<!-- NgxTreeModule&#45;&gt;TreeDropDirective  -->
<g id="edge22" class="edge">
<title>NgxTreeModule&#45;&gt;TreeDropDirective </title>
<path fill="none" stroke="#000000" stroke-dasharray="5,2" d="M946.1419,-171C750.2554,-171 96.875,-171 96.875,-171 96.875,-171 96.875,-205.7778 96.875,-205.7778"/>
<polygon fill="#000000" stroke="#000000" points="93.3751,-205.7778 96.875,-215.7778 100.3751,-205.7778 93.3751,-205.7778"/>
</g>
</g>
</svg>
